<svg width="165" height="151" viewBox="0 0 165 151" fill="none" xmlns="http://www.w3.org/2000/svg">
<path d="M125.815 103.935L123.586 105.089C96.8566 118.932 64.9568 118.498 38.6154 103.935M89.3392 1H75.6608C34.4268 1 1 34.3548 1 75.5C1 116.645 34.4268 150 75.6608 150H89.3392C130.573 150 164 116.645 164 75.5C164 34.3548 130.573 1 89.3392 1ZM69.9615 51.6145C69.9615 58.8385 64.0927 64.6947 56.8531 64.6947C49.6136 64.6947 43.7448 58.8385 43.7448 51.6145C43.7448 44.3905 49.6136 38.5344 56.8531 38.5344C64.0927 38.5344 69.9615 44.3905 69.9615 51.6145ZM120.685 51.6145C120.685 58.8385 114.816 64.6947 107.577 64.6947C100.337 64.6947 94.4685 58.8385 94.4685 51.6145C94.4685 44.3905 100.337 38.5344 107.577 38.5344C114.816 38.5344 120.685 44.3905 120.685 51.6145Z" stroke="#FAFF00"/>
</svg>
